<?xml version="1.0" encoding="UTF-8"?>
<svg width="193px" height="40px" viewBox="0 0 193 40" version="1.1" xmlns="http://www.w3.org/2000/svg" xmlns:xlink="http://www.w3.org/1999/xlink">
    <!-- Generator: Sketch 49.3 (51167) - http://www.bohemiancoding.com/sketch -->
    <title>Combined Shape</title>
    <desc>Created with Sketch.</desc>
    <defs></defs>
    <g id="Welcome" stroke="none" stroke-width="1" fill="none" fill-rule="evenodd">
        <g id="Desktop" transform="translate(-58.000000, -69.000000)" fill="#555555">
            <path d="M129.343548,85.8782951 C129.343548,87.2465079 129.09883,88.399541 128.609387,89.3374288 C128.119943,90.2753166 127.460269,91.0311326 126.630344,91.6048992 C125.800418,92.1786659 124.842826,92.5979507 123.757539,92.862766 C122.672252,93.1275814 121.544422,93.2599871 120.374014,93.2599871 L117.66081,93.2599871 L117.66081,102.098157 L112.202481,102.098157 L112.202481,78.6621118 L120.501694,78.6621118 C121.735942,78.6621118 122.890372,78.7890006 123.965019,79.0427821 C125.039666,79.2965635 125.975979,79.7048144 126.773984,80.2675471 C127.571989,80.8302798 128.199744,81.569545 128.657267,82.4853649 C129.11479,83.4011848 129.343548,84.5321502 129.343548,85.8782951 Z M123.885219,85.9113969 C123.885219,85.3596981 123.77882,84.907312 123.566019,84.5542248 C123.353217,84.2011376 123.06594,83.9252924 122.704177,83.7266808 C122.342415,83.5280693 121.932779,83.3956636 121.475256,83.3294597 C121.017733,83.2632559 120.544257,83.2301545 120.054813,83.2301545 L117.66081,83.2301545 L117.66081,88.758148 L119.959053,88.758148 C120.469777,88.758148 120.959212,88.7140128 121.427375,88.625741 C121.895539,88.5374692 122.315815,88.3829959 122.688217,88.1623164 C123.06062,87.9416369 123.353217,87.649241 123.566019,87.2851198 C123.77882,86.9209987 123.885219,86.4630956 123.885219,85.9113969 Z M141.441247,91.9690186 C141.441247,91.1083686 141.180569,90.3691034 140.659206,89.7512008 C140.137842,89.1332982 139.355809,88.8243516 138.313082,88.8243516 C137.802358,88.8243516 137.334202,88.9071051 136.9086,89.0726147 C136.482997,89.2381244 136.1106,89.4643174 135.791398,89.7512008 C135.472196,90.0380841 135.216838,90.3746153 135.025317,90.7608044 C134.833795,91.1469935 134.727396,91.5497275 134.706116,91.9690186 L141.441247,91.9690186 Z M146.261174,94.0544293 L146.261174,94.7164645 C146.261174,94.937144 146.250534,95.1467864 146.229254,95.3453979 L134.706116,95.3453979 C134.748676,95.8088248 134.881675,96.2281096 135.105117,96.6032647 C135.328558,96.9784198 135.615836,97.3039172 135.966958,97.5797666 C136.31808,97.8556159 136.711757,98.0707752 137.148,98.2252508 C137.584243,98.3797265 138.036439,98.4569632 138.504602,98.4569632 C139.334528,98.4569632 140.036762,98.2969729 140.611325,97.9769877 C141.185889,97.6570024 141.654045,97.2432346 142.015808,96.7356717 L145.654693,99.1189983 C144.909888,100.244464 143.925697,101.110618 142.702089,101.717486 C141.478481,102.324355 140.058053,102.627785 138.440762,102.627785 C137.249074,102.627785 136.121244,102.434693 135.057237,102.048504 C133.99323,101.662315 133.062238,101.099591 132.264232,100.360314 C131.466227,99.6210379 130.838472,98.7107487 130.380949,97.6294192 C129.923426,96.5480897 129.694668,95.3123031 129.694668,93.9220223 C129.694668,92.5758774 129.918106,91.3566415 130.364989,90.264278 C130.811872,89.1719146 131.418347,88.2450746 132.184432,87.4837304 C132.950517,86.7223861 133.85491,86.1320773 134.897637,85.7127863 C135.940363,85.2934953 137.068194,85.0838529 138.281162,85.0838529 C139.451569,85.0838529 140.5262,85.2879784 141.505087,85.6962354 C142.483973,86.1044925 143.324526,86.6948013 144.026771,87.4671795 C144.729015,88.2395577 145.276971,89.1774315 145.670653,90.2808289 C146.064336,91.3842264 146.261174,92.6420806 146.261174,94.0544293 Z M154.943428,89.6849973 L154.943428,95.9743313 C154.943428,96.7467095 155.087067,97.3259845 155.374348,97.7121736 C155.66163,98.0983627 156.177666,98.2914544 156.922471,98.2914544 C157.177833,98.2914544 157.44915,98.2693867 157.736432,98.2252508 C158.023714,98.1811149 158.263112,98.1149121 158.454633,98.0266403 L158.518473,101.998851 C158.156711,102.131259 157.699195,102.247114 157.145911,102.34642 C156.592628,102.445725 156.039352,102.495378 155.486069,102.495378 C154.422062,102.495378 153.528309,102.357455 152.804784,102.081606 C152.08126,101.805756 151.501385,101.408539 151.065142,100.889942 C150.628899,100.371346 150.315022,99.7534523 150.1235,99.0362439 C149.931979,98.3190356 149.83622,97.5190844 149.83622,96.6363665 L149.83622,89.6849973 L147.282616,89.6849973 L147.282616,85.613481 L149.8043,85.613481 L149.8043,81.2771507 L154.943428,81.2771507 L154.943428,85.613481 L158.678074,85.613481 L158.678074,89.6849973 L154.943428,89.6849973 Z M181.245549,100.674781 C180.138982,101.270616 178.846233,101.756103 177.367263,102.131258 C175.888293,102.506413 174.276347,102.693988 172.531375,102.693988 C170.722563,102.693988 169.057417,102.396075 167.535887,101.800241 C166.014358,101.204406 164.705649,100.365837 163.609721,99.2845071 C162.513794,98.2031776 161.657281,96.906705 161.040157,95.3950505 C160.423033,93.883396 160.114476,92.2007401 160.114476,90.3470324 C160.114476,88.4712568 160.428353,86.7720502 161.056117,85.2493617 C161.683881,83.7266732 162.551034,82.4302006 163.657601,81.3599051 C164.764169,80.2896096 166.062238,79.4675908 167.551848,78.8938241 C169.041457,78.3200575 170.648084,78.0331784 172.371775,78.0331784 C174.159307,78.0331784 175.819133,78.3145406 177.351303,78.8772733 C178.883473,79.440006 180.128342,80.1958219 181.085949,81.1447437 L177.638583,85.2162599 C177.10658,84.5762894 176.404346,84.0521835 175.53186,83.6439264 C174.659374,83.2356694 173.669863,83.0315439 172.563295,83.0315439 C171.605689,83.0315439 170.722577,83.2136018 169.913931,83.5777229 C169.105286,83.9418441 168.403052,84.4493993 167.807208,85.1004038 C167.211364,85.7514083 166.748528,86.5237749 166.418686,87.4175268 C166.088844,88.3112788 165.923925,89.2877709 165.923925,90.3470324 C165.923925,91.4283619 166.072884,92.4214047 166.370806,93.3261907 C166.668728,94.2309766 167.110284,95.0088601 167.695488,95.6598646 C168.280692,96.3108691 169.004205,96.8184243 169.866051,97.1825455 C170.727897,97.5466666 171.712088,97.7287245 172.818656,97.7287245 C173.45706,97.7287245 174.063535,97.6790723 174.638099,97.5797666 C175.212662,97.4804608 175.744658,97.3204706 176.234101,97.0997911 L176.234101,92.8296643 L171.924894,92.8296643 L171.924894,88.2616217 L181.245549,88.2616217 L181.245549,100.674781 Z M185.235555,102.098157 L185.235555,77.0732275 L190.534283,77.0732275 L190.534283,102.098157 L185.235555,102.098157 Z M211.282316,93.7896153 C211.282316,95.1357602 211.048238,96.3549961 210.580075,97.4473595 C210.111912,98.539723 209.473517,99.466563 208.664872,100.227907 C207.856226,100.989251 206.919914,101.57956 205.855907,101.998851 C204.7919,102.418142 203.65343,102.627785 202.440462,102.627785 C201.248774,102.627785 200.115624,102.418142 199.040977,101.998851 C197.96633,101.57956 197.030018,100.989251 196.232012,100.227907 C195.434007,99.466563 194.800932,98.539723 194.332769,97.4473595 C193.864606,96.3549961 193.630528,95.1357602 193.630528,93.7896153 C193.630528,92.4434704 193.864606,91.2297514 194.332769,90.1484219 C194.800932,89.0670924 195.434007,88.1512862 196.232012,87.400976 C197.030018,86.6506657 197.96633,86.0769076 199.040977,85.6796845 C200.115624,85.2824615 201.248774,85.0838529 202.440462,85.0838529 C203.65343,85.0838529 204.7919,85.2824615 205.855907,85.6796845 C206.919914,86.0769076 207.856226,86.6506657 208.664872,87.400976 C209.473517,88.1512862 210.111912,89.0670924 210.580075,90.1484219 C211.048238,91.2297514 211.282316,92.4434704 211.282316,93.7896153 Z M206.238948,93.7896153 C206.238948,93.2599845 206.153829,92.7413955 205.983588,92.2338326 C205.813346,91.7262698 205.568629,91.2794005 205.249426,90.8932114 C204.930224,90.5070223 204.536548,90.1925588 204.068385,89.9498113 C203.600221,89.7070639 203.057586,89.585692 202.440462,89.585692 C201.823338,89.585692 201.280703,89.7070639 200.812539,89.9498113 C200.344376,90.1925588 199.95602,90.5070223 199.647458,90.8932114 C199.338896,91.2794005 199.104818,91.7262698 198.945217,92.2338326 C198.785616,92.7413955 198.705816,93.2599845 198.705816,93.7896153 C198.705816,94.319246 198.785616,94.8378351 198.945217,95.3453979 C199.104818,95.8529607 199.344216,96.3108638 199.663418,96.7191209 C199.98262,97.1273779 200.376296,97.4528753 200.84446,97.6956227 C201.312623,97.9383702 201.855258,98.0597421 202.472382,98.0597421 C203.089506,98.0597421 203.632142,97.9383702 204.100305,97.6956227 C204.568468,97.4528753 204.962144,97.1273779 205.281346,96.7191209 C205.600549,96.3108638 205.839947,95.8529607 205.999548,95.3453979 C206.159149,94.8378351 206.238948,94.319246 206.238948,93.7896153 Z M232.062268,93.7896153 C232.062268,94.9371486 231.89203,96.0405295 231.551547,97.0997911 C231.211065,98.1590526 230.716309,99.0914095 230.067265,99.8968896 C229.418221,100.70237 228.625548,101.347848 227.689221,101.833342 C226.752895,102.318837 225.688904,102.561581 224.497216,102.561581 C223.433209,102.561581 222.427738,102.335388 221.480772,101.882995 C220.533806,101.430602 219.804972,100.785124 219.294248,99.9465423 L219.230408,99.9465423 L219.230408,102.098157 L214.410481,102.098157 L214.410481,77.0732275 L219.645369,77.0732275 L219.645369,87.3678742 L219.709209,87.3678742 C220.156092,86.8161755 220.783847,86.3086203 221.592492,85.8451933 C222.401137,85.3817664 223.390649,85.1500564 224.561057,85.1500564 C225.710184,85.1500564 226.747575,85.3817664 227.673261,85.8451933 C228.598948,86.3086203 229.386301,86.9375474 230.035345,87.7319935 C230.684389,88.5264397 231.184465,89.4477628 231.535587,90.4959903 C231.88671,91.5442179 232.062268,92.6420819 232.062268,93.7896153 Z M227.0189,93.7896153 C227.0189,93.2599845 226.939101,92.7413955 226.7795,92.2338326 C226.619899,91.7262698 226.380501,91.2794005 226.061299,90.8932114 C225.742097,90.5070223 225.34842,90.1925588 224.880257,89.9498113 C224.412094,89.7070639 223.869459,89.585692 223.252335,89.585692 C222.656491,89.585692 222.124495,89.7070639 221.656332,89.9498113 C221.188169,90.1925588 220.789172,90.5125392 220.45933,90.9097623 C220.129488,91.3069854 219.87413,91.7593716 219.693249,92.2669344 C219.512368,92.7744972 219.421929,93.2930862 219.421929,93.822717 C219.421929,94.3523478 219.512368,94.8709368 219.693249,95.3784997 C219.87413,95.8860625 220.129488,96.3384487 220.45933,96.7356717 C220.789172,97.1328948 221.188169,97.4528753 221.656332,97.6956227 C222.124495,97.9383702 222.656491,98.0597421 223.252335,98.0597421 C223.869459,98.0597421 224.412094,97.9383702 224.880257,97.6956227 C225.34842,97.4528753 225.742097,97.1328948 226.061299,96.7356717 C226.380501,96.3384487 226.619899,95.8805456 226.7795,95.3619488 C226.939101,94.843352 227.0189,94.319246 227.0189,93.7896153 Z M246.07517,91.9690186 C246.07517,91.1083686 245.814492,90.3691034 245.293129,89.7512008 C244.771766,89.1332982 243.989732,88.8243516 242.947005,88.8243516 C242.436282,88.8243516 241.968126,88.9071051 241.542523,89.0726147 C241.11692,89.2381244 240.744523,89.4643174 240.425321,89.7512008 C240.106119,90.0380841 239.850761,90.3746153 239.65924,90.7608044 C239.467719,91.1469935 239.36132,91.5497275 239.34004,91.9690186 L246.07517,91.9690186 Z M83.34725,70.2736008 C87.1123202,71.418891 90.6287109,73.6781764 93.3526249,76.9955199 C96.6282168,80.8992184 98.2629345,85.6199379 98.3130636,90.2691758 C97.392287,90.3110739 96.4796376,90.3907907 95.5771722,90.50885 C95.5685978,88.559407 94.7577634,84.3289329 93.8234435,84.00324 C92.7098626,83.7038481 91.1126756,85.537566 90.4961223,85.6436499 C89.879569,85.7497338 89.548072,84.7940954 88.8045102,84.8422458 C88.0204466,84.842128 87.4518779,85.5659733 85.3371946,85.9420996 C83.2685163,86.2796232 83.0644634,87.4378817 82.9669504,87.6019581 C82.8694373,87.7660344 82.5293493,89.6964652 82.1613098,90.005287 C81.7987734,90.227238 80.2696041,91.6748698 79.1300513,90.4102329 C77.9904985,89.1455961 76.9323849,90.0334588 76.7998732,90.0623962 C76.6673616,90.0913335 76.4093854,88.6627381 75.7928321,88.768822 C75.1762788,88.8749059 75.640723,91.8575702 73.5625823,90.9692364 C71.5249434,90.1291707 72.297565,88.2470668 72.7796271,87.5135561 C74.3638281,85.1972158 75.9819194,86.4715769 76.3554621,86.0758842 C76.7290048,85.6801915 75.1423885,85.2842044 74.9618923,84.6953803 C74.7408944,84.0582881 75.1639656,82.8807576 74.8804532,82.5428807 C74.5969408,82.2050038 73.1868615,81.0851125 74.2209829,79.888369 C74.2209829,79.888369 73.7534507,79.704903 73.8619701,79.367085 C73.9704895,79.0292669 73.6519785,78.556251 74.3440322,78.6335742 C74.3440322,78.6335742 74.899615,77.4271065 74.3750716,77.4559849 C73.8965331,77.4462606 72.665406,78.3147926 73.6495633,75.8439235 C73.6495633,75.8439235 71.1298623,75.7373685 70.5023026,76.0171941 C69.9207479,76.258417 70.3772737,76.6156248 69.2821819,76.7119844 C69.2821819,76.7119844 67.8705587,76.9916922 68.5755983,77.5516379 C69.3266429,78.0729808 70.8637306,79.2508057 68.9845752,79.3470475 C67.1054198,79.4432893 66.374844,79.9740621 66.6543972,78.9992107 C66.9799553,77.9857566 67.2964867,77.8024084 66.9154613,77.6286078 C66.5344358,77.4548072 67.2520258,76.4414119 66.2804189,77.3389401 C65.3953187,78.2461336 64.4767639,77.618589 63.7976961,78.0238882 C63.0726234,78.4677902 62.7395825,78.911751 63.2586227,78.9697434 C63.777663,79.0277358 63.8126616,79.1628748 62.7415621,79.5681151 C61.7109643,80.0216236 60.5403721,79.9345761 60.1762918,81.5561262 C59.8122114,83.1776763 59.0745884,85.1949192 59.4336012,85.7162032 C59.4336012,85.7162032 60.1527351,83.3032088 60.8337825,83.5542738 C61.6013365,83.8150041 62.2808399,85.4656682 63.2619092,85.7939975 C64.2429785,86.1223268 62.2863431,85.3787974 63.0908754,86.4310309 C63.8954076,87.4832644 63.4173047,89.5295034 66.0034794,90.6495714 C68.589654,91.7696394 67.743076,92.0687369 68.4296265,92.232931 C69.116177,92.3971251 69.7512194,92.6867928 69.8027275,92.5613192 L67.8496157,91.0745547 C67.8201203,90.8525449 68.3466433,91.4800306 69.0331939,91.6442247 C69.6737395,91.8470215 70.7983267,91.9726718 71.2088476,92.3684822 C71.5733635,92.8028954 72.1918965,93.3531757 73.5685211,92.9383289 C74.9506489,92.4366112 76.6898099,91.7998134 77.2198565,91.6840641 C77.7499031,91.5683148 77.5933992,91.2883714 78.1124394,91.3463638 C78.5909779,91.3560881 79.0125051,91.5781568 79.358532,91.6168185 C79.6640571,91.6072119 81.064674,91.5012458 81.208192,91.2985668 L81.3792258,90.6615334 L82.5608243,90.5748392 L83.1683509,91.2988612 C83.2438513,91.4822683 83.2902918,93.4996289 84.1223399,94.1175081 C84.2312645,94.1782117 84.2724759,94.2732321 84.3596529,94.3820783 C83.4463022,94.9360318 82.5599731,95.5469257 81.7040737,96.2156276 C77.6140399,99.4111123 74.6367587,103.600182 72.7703207,108.399086 C69.3116452,107.196779 66.093251,105.051237 63.5414238,102.010088 C56.2916066,93.3700921 57.0950691,80.6869465 65.3299534,73.7770582 C69.935469,69.9125717 75.9156907,68.6507546 81.5445452,69.8140561 C82.180409,69.6689163 82.9007659,69.7655713 83.2654201,70.2001493 C83.291048,70.2258201 83.318412,70.2502579 83.34725,70.2736008 Z M250.895098,94.0544293 L250.895098,94.7164645 C250.895098,94.937144 250.884458,95.1467864 250.863178,95.3453979 L239.34004,95.3453979 C239.3826,95.8088248 239.515599,96.2281096 239.73904,96.6032647 C239.962482,96.9784198 240.249759,97.3039172 240.600882,97.5797666 C240.952004,97.8556159 241.345681,98.0707752 241.781923,98.2252508 C242.218166,98.3797265 242.670363,98.4569632 243.138526,98.4569632 C243.968451,98.4569632 244.670685,98.2969729 245.245249,97.9769877 C245.819813,97.6570024 246.287969,97.2432346 246.649731,96.7356717 L250.288617,99.1189983 C249.543812,100.244464 248.55962,101.110618 247.336012,101.717486 C246.112404,102.324355 244.691976,102.627785 243.074685,102.627785 C241.882998,102.627785 240.755167,102.434693 239.69116,102.048504 C238.627153,101.662315 237.696161,101.099591 236.898156,100.360314 C236.100151,99.6210379 235.472396,98.7107487 235.014873,97.6294192 C234.55735,96.5480897 234.328592,95.3123031 234.328592,93.9220223 C234.328592,92.5758774 234.55203,91.3566415 234.998913,90.264278 C235.445796,89.1719146 236.052271,88.2450746 236.818356,87.4837304 C237.584441,86.7223861 238.488833,86.1320773 239.53156,85.7127863 C240.574287,85.2934953 241.702117,85.0838529 242.915085,85.0838529 C244.085493,85.0838529 245.160124,85.2879784 246.13901,85.6962354 C247.117897,86.1044925 247.95845,86.6948013 248.660694,87.4671795 C249.362939,88.2395577 249.910894,89.1774315 250.304577,90.2808289 C250.698259,91.3842264 250.895098,92.6420806 250.895098,94.0544293 Z" id="Combined-Shape"></path>
        </g>
    </g>
</svg>