<?xml version="1.0" encoding="UTF-8"?>
<svg width="466px" height="132px" viewBox="0 0 466 132" version="1.1" xmlns="http://www.w3.org/2000/svg" xmlns:xlink="http://www.w3.org/1999/xlink">
    <!-- Generator: Sketch 49.3 (51167) - http://www.bohemiancoding.com/sketch -->
    <title>Group Copy 2</title>
    <desc>Created with Sketch.</desc>
    <defs></defs>
    <g id="Welcome" stroke="none" stroke-width="1" fill="none" fill-rule="evenodd">
        <g id="Tablet-Portrait" transform="translate(-122.000000, -717.000000)" fill="#ffffff">
            <g id="Group-Copy-2" transform="translate(121.000000, 717.000000)">
                <path d="M41.4376168,83.9705499 C23.5143821,83.655754 7.0249852,70.7134447 2.28256095,51.6926199 C-3.3255666,29.1996489 9.56120768,6.49991019 30.9688736,1.16237961 C42.9915122,-1.83520087 55.2120837,1.26396481 64.5673324,8.55213053 C65.7505515,8.89844014 66.8288767,9.67110992 67.1098814,10.7011508 C73.1533907,16.2361095 77.7084571,23.6655409 79.7807033,32.3701629 C80.4480226,35.0466345 80.8543918,37.7251598 81.0163014,40.3766909 C79.3783554,40.6114746 77.776971,40.9774606 76.2210014,41.4772977 C75.0568117,41.1984526 73.8443445,41.0512264 72.6006583,41.0512264 L57.1171345,41.0512264 C56.2518274,41.0512264 55.4028917,41.1221501 54.5756957,41.2585659 C53.2679996,41.231702 52.4068433,41.6043054 51.8581151,41.9656454 C49.2476443,42.9058238 46.9559664,44.5261244 45.1913643,46.6158001 C43.7343331,46.6742038 42.0490177,46.319009 41.475982,44.323073 C40.5104674,40.9600971 37.7597618,41.6459251 37.4892396,41.5799032 C37.2187175,41.5138814 38.0272619,38.642877 36.7942472,38.2829492 C35.5612325,37.9230213 33.7362823,43.8503264 30.7005817,40.3361529 C27.6962115,36.9476385 30.8141336,34.1681945 32.3631549,33.2480978 C37.3690065,30.3983518 39.2087481,34.2107113 40.2537809,33.8166848 C41.2988136,33.4226583 38.7273425,31.2609158 38.9237532,30.0107099 C39.0888336,28.6348449 40.9282565,26.8415194 40.7089443,25.961906 C40.489632,25.0822927 38.8948077,21.7427507 41.8789797,20.4648307 C41.8789797,20.4648307 41.1812839,19.7044918 41.6852724,19.1784216 C42.1892609,18.6523514 42.026884,17.4916013 43.2342937,18.2583248 C43.2342937,18.2583248 45.3442388,16.5310212 44.3504159,16.1114562 C43.4761889,15.6620725 40.4236308,16.1562196 44.4612644,12.4801128 C44.4612644,12.4801128 39.9078729,10.0116951 38.498327,9.96272261 C37.2083771,9.88393151 37.7295418,10.9552258 35.6223001,10.1459143 C35.6223001,10.1459143 32.7661527,9.38985546 33.5635648,11.0596264 C34.4805729,12.6995788 36.2576539,16.2606202 32.7038106,14.7442224 C29.1499674,13.2278245 27.3246986,13.5494446 28.7170683,12.0010526 C30.2290338,10.422842 30.9779396,10.3695894 30.4311699,9.70509087 C29.8844003,9.04059236 32.1196667,7.81592495 29.5198872,8.59759335 C27.071034,9.4751022 25.940439,7.48799128 24.3230317,7.62431505 C22.5860285,7.79045743 21.572326,8.310143 22.4778834,8.8851857 C23.3834407,9.4602284 23.3265054,9.74136512 20.9857973,9.5241457 C18.6764195,9.43258534 16.5947828,8.2164781 14.4649581,10.8830323 C12.3351335,13.5495866 9.16027612,16.6101673 9.35398344,17.8965765 C9.35398344,17.8965765 12.8505728,14.088426 13.8814514,15.166105 C15.0632563,16.3396243 14.8328118,20.0007863 16.3477994,21.4916456 C17.862787,22.9825049 14.9210774,19.8453086 15.4594183,22.5139674 C15.9977591,25.1826262 13.2756804,28.5307283 17.0404071,32.9308998 C20.8051339,37.3310713 18.9741397,37.1202365 20.0932839,38.0424378 C21.212428,38.964639 22.1237107,40.0721366 22.3315722,39.8868403 L20.0646569,35.3801636 C20.2098577,34.9435492 20.6171519,36.577117 21.7362961,37.4993182 C22.7358444,38.4513381 24.6978853,39.6972639 25.0994541,40.7983768 C25.3814269,41.9293083 26.0279129,43.5032388 28.9409956,43.978161 C31.9423438,44.2976055 35.7239281,44.6894565 36.8060166,44.9535438 C37.8881051,45.2176312 37.8510493,44.5595173 38.7566067,45.13456 C39.6308337,45.5839437 40.2089336,46.3741012 40.8126385,46.757463 C41.3106666,46.9816925 43.404065,47.818643 44.2339868,47.8709349 C42.4710391,50.4368216 41.4376168,53.5544251 41.4376168,56.916253 L41.4376168,83.9705499 Z" id="Combined-Shape-Copy-2"></path>
                <path d="M106.613281,84.7070312 C106.613281,92.6497793 104.822935,99.0217859 101.242188,103.823242 C97.6614404,108.624698 92.615918,111.025391 86.1054688,111.025391 C83.5663936,111.025391 81.3121843,110.537114 79.3427734,109.560547 C77.3733625,108.583979 75.6562573,107.167978 74.1914062,105.3125 L74.1914062,130.3125 L57.6875,130.3125 L57.6875,57.1679688 L73.1171875,57.1679688 L73.703125,62.9785156 C75.2005283,60.7975151 76.9583232,59.1210996 78.9765625,57.9492188 C80.9948018,56.7773379 83.3385283,56.1914062 86.0078125,56.1914062 C92.550814,56.1914062 97.6207502,58.7141675 101.217773,63.7597656 C104.814797,68.8053638 106.613281,75.4459224 106.613281,83.6816406 L106.613281,84.7070312 Z M90.1582031,83.6816406 C90.1582031,79.2219829 89.507168,75.6412896 88.2050781,72.9394531 C86.9029883,70.2376167 84.8196758,68.8867188 81.9550781,68.8867188 C80.0996001,68.8867188 78.5289778,69.2285122 77.2431641,69.9121094 C75.9573503,70.5957065 74.9401079,71.5885352 74.1914062,72.890625 L74.1914062,94.9609375 C74.9726602,96.1002661 76.0061785,96.9466118 77.2919922,97.5 C78.5778059,98.0533882 80.1647041,98.3300781 82.0527344,98.3300781 C84.9498843,98.3300781 87.0250588,97.133801 88.2783203,94.7412109 C89.5315818,92.3486208 90.1582031,89.0039277 90.1582031,84.7070312 L90.1582031,83.6816406 Z M138.009766,111.025391 C130.229779,111.025391 124.020531,108.584009 119.381836,103.701172 C114.743141,98.818335 112.423828,92.6986045 112.423828,85.3417969 L112.423828,83.4863281 C112.423828,75.4459233 114.531554,68.8786062 118.74707,63.7841797 C122.962586,58.6897532 128.992799,56.158854 136.837891,56.1914062 C143.999385,56.1914062 149.614563,58.3398223 153.683594,62.6367188 C157.752625,66.9336152 159.787109,72.7603799 159.787109,80.1171875 L159.787109,88.7597656 L129.611328,88.7597656 L129.513672,89.0527344 C129.871747,91.7545708 130.978506,93.9762283 132.833984,95.7177734 C134.689462,97.4593186 137.163396,98.3300781 140.255859,98.3300781 C143.380875,98.3300781 145.879222,98.0859399 147.750977,97.5976562 C149.622731,97.1093726 151.990871,96.2630269 154.855469,95.0585938 L158.761719,105.117188 C156.450509,106.809904 153.463885,108.217768 149.801758,109.34082 C146.13963,110.463873 142.209005,111.025391 138.009766,111.025391 Z M136.837891,68.8867188 C134.461577,68.8867188 132.679368,69.7330645 131.491211,71.4257812 C130.303054,73.118498 129.578777,75.3808452 129.318359,78.2128906 L129.464844,78.4570312 L143.673828,78.4570312 L143.673828,77.1875 C143.673828,74.5182158 143.120448,72.4674551 142.013672,71.0351562 C140.906896,69.6028574 139.181652,68.8867188 136.837891,68.8867188 Z M186.300781,44.0332031 L186.300781,57.1679688 L195.236328,57.1679688 L195.236328,68.59375 L186.300781,68.59375 L186.300781,92.8125 C186.300781,94.7005303 186.683264,96.0595662 187.448242,96.8896484 C188.21322,97.7197307 189.246738,98.1347656 190.548828,98.1347656 C191.5905,98.1347656 192.412432,98.1022139 193.014648,98.0371094 C193.616865,97.9720049 194.389969,97.8417979 195.333984,97.6464844 L196.505859,109.853516 C194.682934,110.276695 193.03907,110.577799 191.574219,110.756836 C190.109368,110.935873 188.384125,111.025391 186.398438,111.025391 C180.962212,111.025391 176.844415,109.576837 174.044922,106.679688 C171.245429,103.782538 169.845703,99.1927397 169.845703,92.9101562 L169.845703,68.59375 L162.423828,68.59375 L162.423828,57.1679688 L169.845703,57.1679688 L169.845703,44.0332031 L186.300781,44.0332031 Z M203.195312,84.5605469 C203.195312,76.0644106 205.050763,69.2122656 208.761719,64.0039062 C212.472675,58.7955469 217.599577,56.1914062 224.142578,56.1914062 C227.495459,56.1914062 230.441394,56.8668552 232.980469,58.2177734 C235.519544,59.5686917 237.635408,61.5136592 239.328125,64.0527344 L240.5,57.1679688 L248.166016,57.1679688 L248.166016,110.292969 C248.166016,117.063836 246.196634,122.263979 242.257812,125.893555 C238.318991,129.52313 232.638709,131.337891 225.216797,131.337891 C222.677722,131.337891 219.935236,130.987959 216.989258,130.288086 C214.04328,129.588213 211.447277,128.636074 209.201172,127.431641 L211.642578,119.960938 C213.367847,120.937505 215.45116,121.726885 217.892578,122.329102 C220.333997,122.931318 222.742827,123.232422 225.119141,123.232422 C229.806664,123.232422 233.216461,122.166352 235.348633,120.03418 C237.480805,117.902008 238.546875,114.65497 238.546875,110.292969 L238.546875,104.335938 C236.821606,106.54949 234.754569,108.217768 232.345703,109.34082 C229.936837,110.463873 227.169938,111.025391 224.044922,111.025391 C217.567025,111.025391 212.472675,108.681664 208.761719,103.994141 C205.050763,99.3066172 203.195312,93.1706108 203.195312,85.5859375 L203.195312,84.5605469 Z M212.814453,85.5859375 C212.814453,90.8919536 213.937489,95.1562339 216.183594,98.3789062 C218.429699,101.601579 221.847633,103.212891 226.4375,103.212891 C229.33465,103.212891 231.759756,102.553718 233.712891,101.235352 C235.666025,99.9169856 237.277337,98.0533975 238.546875,95.6445312 L238.546875,71.328125 C237.30989,69.08202 235.698578,67.2998113 233.712891,65.9814453 C231.727204,64.6630793 229.334649,64.0039062 226.535156,64.0039062 C221.94529,64.0039062 218.511079,65.92446 216.232422,69.765625 C213.953765,73.60679 212.814453,78.5383813 212.814453,84.5605469 L212.814453,85.5859375 Z M272.53125,110 L262.912109,110 L262.912109,33.828125 L272.53125,33.828125 L272.53125,110 Z M285.080078,83.0957031 C285.080078,75.2831641 287.195942,68.846054 291.427734,63.7841797 C295.659526,58.7223054 301.404912,56.1914062 308.664062,56.1914062 C315.988318,56.1914062 321.774393,58.7141675 326.022461,63.7597656 C330.270529,68.8053638 332.394531,75.2506118 332.394531,83.0957031 L332.394531,84.1699219 C332.394531,92.0475654 330.278667,98.4928135 326.046875,103.505859 C321.815083,108.518905 316.053422,111.025391 308.761719,111.025391 C301.470016,111.025391 295.700217,108.510767 291.452148,103.481445 C287.20408,98.4521233 285.080078,92.0150132 285.080078,84.1699219 L285.080078,83.0957031 Z M294.699219,84.1699219 C294.699219,89.7689082 295.87922,94.3912578 298.239258,98.0371094 C300.599296,101.682961 304.106748,103.505859 308.761719,103.505859 C313.351585,103.505859 316.834624,101.682961 319.210938,98.0371094 C321.587251,94.3912578 322.775391,89.7689082 322.775391,84.1699219 L322.775391,83.0957031 C322.775391,77.5618213 321.579114,72.9557476 319.186523,69.2773438 C316.793933,65.5989399 313.286481,63.7597656 308.664062,63.7597656 C304.074196,63.7597656 300.599296,65.5989399 298.239258,69.2773438 C295.87922,72.9557476 294.699219,77.5618213 294.699219,83.0957031 L294.699219,84.1699219 Z M389.279297,85.5859375 C389.279297,93.2031631 387.44826,99.3473074 383.786133,104.018555 C380.124005,108.689802 375.086621,111.025391 368.673828,111.025391 C365.190738,111.025391 362.163424,110.349942 359.591797,108.999023 C357.020169,107.648105 354.888029,105.65431 353.195312,103.017578 L352.023438,110 L344.162109,110 L344.162109,33.828125 L353.78125,33.828125 L353.78125,63.4179688 C355.441415,61.074207 357.500313,59.2838604 359.958008,58.046875 C362.415702,56.8098896 365.288395,56.1914062 368.576172,56.1914062 C375.086621,56.1914062 380.164695,58.7955469 383.810547,64.0039062 C387.456398,69.2122656 389.279297,76.0644106 389.279297,84.5605469 L389.279297,85.5859375 Z M379.660156,84.5605469 C379.660156,78.5058291 378.545259,73.5660999 376.31543,69.7412109 C374.085601,65.916322 370.69208,64.0039062 366.134766,64.0039062 C363.172511,64.0039062 360.674164,64.7281829 358.639648,66.1767578 C356.605133,67.6253328 354.985683,69.5703003 353.78125,72.0117188 L353.78125,94.9121094 C355.018235,97.5162891 356.637685,99.5507739 358.639648,101.015625 C360.641612,102.480476 363.172511,103.212891 366.232422,103.212891 C370.757184,103.212891 374.126291,101.601579 376.339844,98.3789062 C378.553396,95.1562339 379.660156,90.8919536 379.660156,85.5859375 L379.660156,84.5605469 Z M433.46875,110 C433.143228,108.40494 432.890951,106.997076 432.711914,105.776367 C432.532877,104.555658 432.427083,103.326829 432.394531,102.089844 C430.604158,104.628919 428.268569,106.752921 425.387695,108.461914 C422.506822,110.170907 419.406267,111.025391 416.085938,111.025391 C410.584608,111.025391 406.393569,109.617527 403.512695,106.801758 C400.631822,103.985989 399.191406,100.104191 399.191406,95.15625 C399.191406,90.1106519 401.234029,86.1637512 405.319336,83.3154297 C409.404643,80.4671082 414.94658,79.0429688 421.945312,79.0429688 L432.394531,79.0429688 L432.394531,73.8183594 C432.394531,70.725896 431.45053,68.2763762 429.5625,66.4697266 C427.67447,64.6630769 425.005226,63.7597656 421.554688,63.7597656 C418.462224,63.7597656 415.947601,64.5491458 414.010742,66.1279297 C412.073884,67.7067136 411.105469,69.6028535 411.105469,71.8164062 L401.925781,71.8164062 L401.828125,71.5234375 C401.632812,67.6822725 403.447572,64.1666826 407.272461,60.9765625 C411.09735,57.7864424 416.037079,56.1914062 422.091797,56.1914062 C428.08141,56.1914062 432.89907,57.7132009 436.544922,60.7568359 C440.190773,63.8004709 442.013672,68.1868203 442.013672,73.9160156 L442.013672,99.3554688 C442.013672,101.243499 442.111327,103.066397 442.306641,104.824219 C442.501954,106.58204 442.860023,108.307283 443.380859,110 L433.46875,110 Z M417.501953,102.96875 C420.985043,102.96875 424.126288,102.073577 426.925781,100.283203 C429.725274,98.4928296 431.548173,96.4420688 432.394531,94.1308594 L432.394531,85.5371094 L421.603516,85.5371094 C417.729798,85.5371094 414.629243,86.5136621 412.301758,88.4667969 C409.974272,90.4199316 408.810547,92.7148306 408.810547,95.3515625 C408.810547,97.6953242 409.542961,99.5507744 411.007812,100.917969 C412.472664,102.285163 414.637355,102.96875 417.501953,102.96875 Z M466.378906,110 L456.759766,110 L456.759766,33.828125 L466.378906,33.828125 L466.378906,110 Z" id="petglobal-copy"></path>
            </g>
        </g>
    </g>
</svg>